<svg width="209" height="61" viewBox="0 0 209 61" fill="none" xmlns="http://www.w3.org/2000/svg">
<path opacity="0.5" d="M64.0671 0.410504L48.388 55.9541C48.3083 56.2062 47.9894 56.2819 47.8034 56.1054L37.3064 46.1464L45.1725 18.3115C45.2522 18.0594 45.0131 17.8325 44.7473 17.9081L15.409 25.3711L4.96515 15.4625C4.77913 15.286 4.85885 14.9834 5.1246 14.9078L63.6419 0.00710022C63.9076 -0.0433252 64.1468 0.183589 64.0671 0.410504Z" fill="#00B37E"/>
<path opacity="0.5" d="M37.3058 46.1459L33.2665 60.5171C33.1868 60.7693 32.8679 60.8449 32.6818 60.6684L0.101381 29.7828C-0.0846408 29.6063 -0.00491742 29.3038 0.260829 29.2282L15.4084 25.3706L37.3058 46.1459Z" fill="#00B37E"/>
<path d="M45.171 18.311L37.3049 46.1459L15.4075 25.3706L44.7458 17.9076C45.0116 17.832 45.2507 18.0589 45.171 18.311Z" fill="#00B37E"/>
<path d="M85.6828 20.6927V38.8823H81.9474V20.6927H85.6828ZM97.526 25.365H100.787V38.4326C100.787 39.6652 100.512 40.7104 99.9621 41.5683C99.4207 42.4344 98.6628 43.0882 97.6884 43.5296C96.7139 43.9794 95.5813 44.2042 94.2903 44.2042C93.724 44.2042 93.1243 44.1293 92.4914 43.9794C91.8667 43.8295 91.2671 43.5963 90.6924 43.2798C90.1261 42.9633 89.6513 42.5635 89.2682 42.0805L90.8548 39.9567C91.2712 40.4397 91.7543 40.8145 92.304 41.081C92.8537 41.3559 93.4616 41.4933 94.1279 41.4933C94.7776 41.4933 95.3272 41.3725 95.777 41.131C96.2267 40.8978 96.5724 40.5522 96.8139 40.0941C97.0554 39.6444 97.1762 39.0988 97.1762 38.4575V28.4883L97.526 25.365ZM88.4312 32.2861V32.0237C88.4312 30.991 88.5561 30.054 88.806 29.2128C89.0642 28.3633 89.4265 27.6346 89.8929 27.0266C90.3676 26.4186 90.9423 25.948 91.6169 25.6149C92.2915 25.2818 93.0535 25.1152 93.9031 25.1152C94.8025 25.1152 95.5563 25.2818 96.1643 25.6149C96.7722 25.948 97.272 26.4228 97.6634 27.0391C98.0548 27.6471 98.3588 28.3675 98.5754 29.2003C98.8002 30.0249 98.9751 30.9285 99.1001 31.9113V32.486C98.9751 33.4271 98.7878 34.3016 98.5379 35.1095C98.288 35.9173 97.9591 36.6253 97.551 37.2332C97.1429 37.8329 96.6348 38.2993 96.0268 38.6324C95.4272 38.9656 94.7109 39.1322 93.8781 39.1322C93.0452 39.1322 92.2915 38.9614 91.6169 38.6199C90.9506 38.2785 90.3801 37.7996 89.9053 37.1833C89.4306 36.567 89.0642 35.8424 88.806 35.0095C88.5561 34.1767 88.4312 33.2688 88.4312 32.2861ZM92.0291 32.0237V32.2861C92.0291 32.8441 92.0833 33.3646 92.1915 33.8477C92.2998 34.3307 92.4664 34.7597 92.6912 35.1344C92.9244 35.5009 93.2118 35.7882 93.5533 35.9964C93.9031 36.1963 94.3153 36.2963 94.79 36.2963C95.448 36.2963 95.9852 36.1589 96.4016 35.884C96.818 35.6008 97.1304 35.2136 97.3386 34.7222C97.5468 34.2308 97.6676 33.6645 97.7009 33.0232V31.3866C97.6842 30.8619 97.6134 30.3913 97.4885 29.9749C97.3636 29.5501 97.1887 29.1879 96.9638 28.888C96.7389 28.5882 96.4474 28.355 96.0893 28.1884C95.7312 28.0219 95.3064 27.9386 94.815 27.9386C94.3403 27.9386 93.928 28.0468 93.5782 28.2634C93.2368 28.4716 92.9494 28.7589 92.7162 29.1254C92.4914 29.4918 92.3206 29.9249 92.204 30.4246C92.0874 30.916 92.0291 31.4491 92.0291 32.0237ZM107.108 28.2509V38.8823H103.51V25.365H106.883L107.108 28.2509ZM106.583 31.6489H105.609C105.609 30.6495 105.738 29.75 105.996 28.9505C106.254 28.1426 106.617 27.4555 107.083 26.8892C107.549 26.3145 108.103 25.8773 108.745 25.5774C109.394 25.2693 110.119 25.1152 110.918 25.1152C111.551 25.1152 112.13 25.2068 112.655 25.39C113.179 25.5733 113.629 25.8648 114.004 26.2645C114.387 26.6643 114.679 27.1932 114.879 27.8511C115.087 28.5091 115.191 29.3128 115.191 30.2622V38.8823H111.568V30.2497C111.568 29.6501 111.485 29.1837 111.318 28.8505C111.151 28.5174 110.906 28.2842 110.581 28.1509C110.265 28.0094 109.873 27.9386 109.407 27.9386C108.924 27.9386 108.503 28.0343 108.145 28.2259C107.795 28.4175 107.504 28.684 107.27 29.0254C107.046 29.3586 106.875 29.75 106.758 30.1998C106.642 30.6495 106.583 31.1326 106.583 31.6489ZM121.725 25.365V38.8823H118.114V25.365H121.725ZM117.889 21.8421C117.889 21.3174 118.073 20.8843 118.439 20.5428C118.805 20.2013 119.297 20.0306 119.913 20.0306C120.521 20.0306 121.008 20.2013 121.375 20.5428C121.75 20.8843 121.937 21.3174 121.937 21.8421C121.937 22.3668 121.75 22.7999 121.375 23.1413C121.008 23.4828 120.521 23.6535 119.913 23.6535C119.297 23.6535 118.805 23.4828 118.439 23.1413C118.073 22.7999 117.889 22.3668 117.889 21.8421ZM131.319 25.365V27.9136H123.449V25.365H131.319ZM125.397 22.0295H128.995V34.8096C128.995 35.2011 129.045 35.5009 129.145 35.7091C129.254 35.9173 129.412 36.0631 129.62 36.1464C129.828 36.2213 130.091 36.2588 130.407 36.2588C130.632 36.2588 130.832 36.2505 131.007 36.2338C131.19 36.2088 131.344 36.1838 131.469 36.1589L131.482 38.8073C131.173 38.9073 130.84 38.9864 130.482 39.0447C130.124 39.103 129.728 39.1322 129.295 39.1322C128.504 39.1322 127.813 39.0031 127.221 38.7449C126.638 38.4784 126.189 38.0536 125.872 37.4706C125.556 36.8876 125.397 36.1214 125.397 35.1719V22.0295ZM139.589 39.1322C138.54 39.1322 137.599 38.9656 136.766 38.6324C135.933 38.291 135.225 37.8204 134.642 37.2207C134.068 36.6211 133.626 35.9257 133.318 35.1344C133.01 34.3349 132.856 33.4854 132.856 32.5859V32.0862C132.856 31.0618 133.001 30.1248 133.293 29.2753C133.584 28.4258 134.001 27.6887 134.542 27.0641C135.092 26.4394 135.758 25.9605 136.541 25.6274C137.324 25.2859 138.207 25.1152 139.19 25.1152C140.147 25.1152 140.997 25.2734 141.738 25.5899C142.479 25.9064 143.1 26.3561 143.6 26.9391C144.108 27.5221 144.491 28.2217 144.749 29.0379C145.007 29.8458 145.136 30.7453 145.136 31.7364V33.2355H134.392V30.8369H141.601V30.5621C141.601 30.0624 141.509 29.6168 141.326 29.2253C141.151 28.8256 140.884 28.5091 140.526 28.2759C140.168 28.0427 139.71 27.9261 139.152 27.9261C138.677 27.9261 138.269 28.0302 137.928 28.2384C137.586 28.4466 137.307 28.7381 137.091 29.1129C136.883 29.4877 136.724 29.9291 136.616 30.4371C136.516 30.9369 136.466 31.4865 136.466 32.0862V32.5859C136.466 33.1273 136.541 33.627 136.691 34.085C136.849 34.5431 137.07 34.9387 137.353 35.2719C137.645 35.605 137.994 35.8632 138.403 36.0464C138.819 36.2296 139.29 36.3213 139.814 36.3213C140.464 36.3213 141.068 36.1963 141.626 35.9465C142.192 35.6883 142.679 35.301 143.087 34.7846L144.836 36.6836C144.553 37.0917 144.166 37.4831 143.675 37.8579C143.191 38.2327 142.608 38.5408 141.926 38.7824C141.243 39.0156 140.464 39.1322 139.589 39.1322ZM157.529 20.6927V38.8823H153.781V20.6927H157.529ZM164.775 28.4633V31.3866H156.505V28.4633H164.775ZM165.649 20.6927V23.6285H156.505V20.6927H165.649ZM173.545 39.1322C172.495 39.1322 171.554 38.9656 170.721 38.6324C169.889 38.291 169.181 37.8204 168.598 37.2207C168.023 36.6211 167.582 35.9257 167.273 35.1344C166.965 34.3349 166.811 33.4854 166.811 32.5859V32.0862C166.811 31.0618 166.957 30.1248 167.248 29.2753C167.54 28.4258 167.956 27.6887 168.498 27.0641C169.047 26.4394 169.714 25.9605 170.497 25.6274C171.28 25.2859 172.162 25.1152 173.145 25.1152C174.103 25.1152 174.952 25.2734 175.694 25.5899C176.435 25.9064 177.055 26.3561 177.555 26.9391C178.063 27.5221 178.446 28.2217 178.704 29.0379C178.963 29.8458 179.092 30.7453 179.092 31.7364V33.2355H168.348V30.8369H175.556V30.5621C175.556 30.0624 175.465 29.6168 175.281 29.2253C175.106 28.8256 174.84 28.5091 174.482 28.2759C174.124 28.0427 173.666 27.9261 173.108 27.9261C172.633 27.9261 172.225 28.0302 171.883 28.2384C171.542 28.4466 171.263 28.7381 171.046 29.1129C170.838 29.4877 170.68 29.9291 170.572 30.4371C170.472 30.9369 170.422 31.4865 170.422 32.0862V32.5859C170.422 33.1273 170.497 33.627 170.647 34.085C170.805 34.5431 171.025 34.9387 171.309 35.2719C171.6 35.605 171.95 35.8632 172.358 36.0464C172.774 36.2296 173.245 36.3213 173.77 36.3213C174.419 36.3213 175.023 36.1963 175.581 35.9465C176.148 35.6883 176.635 35.301 177.043 34.7846L178.792 36.6836C178.509 37.0917 178.121 37.4831 177.63 37.8579C177.147 38.2327 176.564 38.5408 175.881 38.7824C175.198 39.0156 174.419 39.1322 173.545 39.1322ZM187.362 39.1322C186.313 39.1322 185.371 38.9656 184.539 38.6324C183.706 38.291 182.998 37.8204 182.415 37.2207C181.84 36.6211 181.399 35.9257 181.091 35.1344C180.782 34.3349 180.628 33.4854 180.628 32.5859V32.0862C180.628 31.0618 180.774 30.1248 181.066 29.2753C181.357 28.4258 181.773 27.6887 182.315 27.0641C182.865 26.4394 183.531 25.9605 184.314 25.6274C185.097 25.2859 185.979 25.1152 186.962 25.1152C187.92 25.1152 188.769 25.2734 189.511 25.5899C190.252 25.9064 190.872 26.3561 191.372 26.9391C191.88 27.5221 192.263 28.2217 192.521 29.0379C192.78 29.8458 192.909 30.7453 192.909 31.7364V33.2355H182.165V30.8369H189.373V30.5621C189.373 30.0624 189.282 29.6168 189.098 29.2253C188.924 28.8256 188.657 28.5091 188.299 28.2759C187.941 28.0427 187.483 27.9261 186.925 27.9261C186.45 27.9261 186.042 28.0302 185.7 28.2384C185.359 28.4466 185.08 28.7381 184.863 29.1129C184.655 29.4877 184.497 29.9291 184.389 30.4371C184.289 30.9369 184.239 31.4865 184.239 32.0862V32.5859C184.239 33.1273 184.314 33.627 184.464 34.085C184.622 34.5431 184.843 34.9387 185.126 35.2719C185.417 35.605 185.767 35.8632 186.175 36.0464C186.592 36.2296 187.062 36.3213 187.587 36.3213C188.236 36.3213 188.84 36.1963 189.398 35.9465C189.965 35.6883 190.452 35.301 190.86 34.7846L192.609 36.6836C192.326 37.0917 191.938 37.4831 191.447 37.8579C190.964 38.2327 190.381 38.5408 189.698 38.7824C189.015 39.0156 188.236 39.1322 187.362 39.1322ZM202.941 35.934V19.6933H206.563V38.8823H203.303L202.941 35.934ZM194.395 32.2861V32.0237C194.395 30.991 194.512 30.054 194.745 29.2128C194.978 28.3633 195.32 27.6346 195.77 27.0266C196.219 26.4186 196.773 25.948 197.431 25.6149C198.089 25.2818 198.839 25.1152 199.68 25.1152C200.471 25.1152 201.162 25.2818 201.754 25.6149C202.353 25.948 202.861 26.4228 203.278 27.0391C203.703 27.6471 204.044 28.3675 204.302 29.2003C204.56 30.0249 204.748 30.9285 204.864 31.9113V32.486C204.748 33.4271 204.56 34.3016 204.302 35.1095C204.044 35.9173 203.703 36.6253 203.278 37.2332C202.861 37.8329 202.353 38.2993 201.754 38.6324C201.154 38.9656 200.454 39.1322 199.655 39.1322C198.814 39.1322 198.064 38.9614 197.406 38.6199C196.757 38.2785 196.207 37.7996 195.757 37.1833C195.316 36.567 194.978 35.8424 194.745 35.0095C194.512 34.1767 194.395 33.2688 194.395 32.2861ZM197.993 32.0237V32.2861C197.993 32.8441 198.035 33.3646 198.118 33.8477C198.21 34.3307 198.356 34.7597 198.556 35.1344C198.764 35.5009 199.03 35.7882 199.355 35.9964C199.688 36.1963 200.092 36.2963 200.567 36.2963C201.183 36.2963 201.691 36.1589 202.091 35.884C202.491 35.6008 202.795 35.2136 203.003 34.7222C203.22 34.2308 203.344 33.6645 203.378 33.0232V31.3866C203.353 30.8619 203.278 30.3913 203.153 29.9749C203.036 29.5501 202.861 29.1879 202.628 28.888C202.403 28.5882 202.12 28.355 201.779 28.1884C201.446 28.0219 201.05 27.9386 200.592 27.9386C200.125 27.9386 199.726 28.0468 199.393 28.2634C199.059 28.4716 198.789 28.7589 198.581 29.1254C198.381 29.4918 198.231 29.9249 198.131 30.4246C198.039 30.916 197.993 31.4491 197.993 32.0237Z" fill="#E1E1E6"/>
</svg>
